<svg fill="#ffffff" width="55px" height="55px" viewBox="-192 -192 2304.00 2304.00" xmlns="http://www.w3.org/2000/svg" stroke="#ffffff"><g id="SVGRepo_bgCarrier" stroke-width="0"><path transform="translate(-192, -192), scale(72)" d="M16,31.4308943268843C20.596463832065055,31.303732080289635,24.71823569223199,28.833375219698418,27.536519832141813,25.200067566447196C30.304160338372345,21.63204924979257,32.04225849744021,16.940271248104125,30.544440939496752,12.680326266906926C29.17232412075417,8.777886931341728,24.51354710489035,7.855201736662489,20.798369123201528,6.036083847019988C17.029984101729067,4.190913402586736,13.378064776908435,0.9437976286141303,9.420228521694494,2.3369637407422186C5.141109560956408,3.8432219943552957,2.8224799992393965,8.339824707443206,1.7389987746563644,12.74501953204538C0.6289684705545091,17.258157037185722,0.8145937272324546,22.166749023144284,3.6342852149118343,25.861328475617505C6.51984498919383,29.642213688602105,11.245607536075001,31.562425706004024,16,31.4308943268843" fill="#0804d7" strokewidth="0"></path></g><g id="SVGRepo_tracerCarrier" stroke-linecap="round" stroke-linejoin="round"></g><g id="SVGRepo_iconCarrier"> <path d="M1168.737 487.897c44.672-41.401 113.824-36.889 118.9-36.663l289.354-.113 6.317-417.504L1539.65 22.9C1511.675 16.02 1426.053 0 1237.324 0 901.268 0 675.425 235.206 675.425 585.137v93.97H337v451.234h338.425V1920h451.234v-789.66h356.7l62.045-451.233H1126.66v-69.152c0-54.937 14.214-96.112 42.078-122.058" fill-rule="evenodd"></path> </g></svg>