<svg fill="#ffffff" version="1.1" xmlns="http://www.w3.org/2000/svg" xmlns:xlink="http://www.w3.org/1999/xlink" width="64px" height="64px" viewBox="-51.2 -51.2 614.40 614.40" xml:space="preserve" stroke="#ffffff"><g id="SVGRepo_bgCarrier" stroke-width="0"><path transform="translate(-51.2, -51.2), scale(19.2)" d="M16,27.6761232101255C17.778607562275013,28.061613883786247,19.764418909324657,28.922716929489926,21.383971798953304,28.092598650112357C23.024850989380347,27.25154935870201,23.039522219385855,24.81952078404985,24.263566210532243,23.440548436286207C25.477222058674773,22.073279068195312,27.83126234715532,21.76230916878242,28.509915401106994,20.064717912027042C29.179801045256315,18.3890575640596,27.652552889873412,16.569914508432376,27.73101830792502,14.767020291857893C27.824951760858905,12.608718160261652,29.492094169385265,10.59320450519153,29.013823169268548,8.486465690036619C28.537551636400433,6.3885343402334325,27.195984494720673,4.073414640136427,25.15142325705671,3.404146482407727C22.91117124480442,2.670820764660491,20.696903776208853,5.008549883848965,18.33973705490144,4.992402603248257C16.552284798757583,4.980158033155092,15.089785306146148,3.2172811662341734,13.305420021312244,3.32299789986776C11.49776249696534,3.430094608499321,10.075581859251354,4.825753503617582,8.429113481255815,5.579568673661559C6.454912651954405,6.483432090493505,2.9043064872334523,6.09751358805226,2.5621668417795203,8.241663408776118C2.133125263666825,10.930417649965872,7.009543854626618,12.324258830365604,6.918643407526963,15.045510960173205C6.837152622745102,17.485069606174317,2.639848378385306,18.107438497352916,2.152715402230225,20.499255505157954C1.73266137368643,22.56171569333504,2.8210879079659152,25.170493070049176,4.641255124216761,26.227459824302585C6.660186216836738,27.399848286733686,9.247776716499763,25.6688093858006,11.563665034218769,25.964171474501725C13.153362262995286,26.16691712950649,14.43379036277989,27.336667097966803,16,27.6761232101255" fill="#7ed0ec" strokewidth="0"></path></g><g id="SVGRepo_tracerCarrier" stroke-linecap="round" stroke-linejoin="round"></g><g id="SVGRepo_iconCarrier"> <g id="7935ec95c421cee6d86eb22ecd12f847"> <path style="display: inline;" d="M459.186,151.787c0.203,4.501,0.305,9.023,0.305,13.565 c0,138.542-105.461,298.285-298.274,298.285c-59.209,0-114.322-17.357-160.716-47.104c8.212,0.973,16.546,1.47,25.012,1.47 c49.121,0,94.318-16.759,130.209-44.884c-45.887-0.841-84.596-31.154-97.938-72.804c6.408,1.227,12.968,1.886,19.73,1.886 c9.55,0,18.816-1.287,27.617-3.68c-47.955-9.633-84.1-52.001-84.1-102.795c0-0.446,0-0.882,0.011-1.318 c14.133,7.847,30.294,12.562,47.488,13.109c-28.134-18.796-46.637-50.885-46.637-87.262c0-19.212,5.16-37.218,14.193-52.7 c51.707,63.426,128.941,105.156,216.072,109.536c-1.784-7.675-2.718-15.674-2.718-23.896c0-57.891,46.941-104.832,104.832-104.832 c30.173,0,57.404,12.734,76.525,33.102c23.887-4.694,46.313-13.423,66.569-25.438c-7.827,24.485-24.434,45.025-46.089,58.002 c21.209-2.535,41.426-8.171,60.222-16.505C497.448,118.542,479.666,137.004,459.186,151.787z"> </path> </g> </g></svg>