<svg width="64px" height="64px" viewBox="-2.4 -2.4 28.80 28.80" fill="none" xmlns="http://www.w3.org/2000/svg"><g id="SVGRepo_bgCarrier" stroke-width="0"><path transform="translate(-2.4, -2.4), scale(0.8999999999999999)" d="M16,29.757546142985422C18.336855122077235,30.00007411087695,20.276314502517593,28.099090705523057,22.36998426603774,27.033136392191714C24.579380961361657,25.908261792445472,27.651862039158118,25.574625340316338,28.662467023614568,23.31067874468863C29.69053982800909,21.007600923616685,27.671892653154206,18.493814282277615,27.29507510239879,16C26.9823024492762,13.930040923255028,27.17479676061591,11.883956704732338,26.630437413236514,9.862514097864432C25.944772358434218,7.316342047195532,25.709991763704164,4.368621662026227,23.702439369012918,2.6589836706508727C21.65732502471878,0.9173578037704768,18.67196479938281,0.5332713329083507,16.000000000000004,0.809599855293829C13.43219737713747,1.075156162291981,11.026614993658772,2.3733611722758985,9.165533845002457,4.162357376934336C7.491254093528868,5.771787531597551,7.286743589068665,8.28773930519684,6.127240352054969,10.299959559614454C4.968979319891601,12.31002407209002,2.7906772116372043,13.723447106323547,2.3443198601404838,15.999999999999998C1.8702561484445412,18.417863424965507,2.0465690855651255,21.248247137826606,3.6067390513675086,23.155252544830233C5.16102483514765,25.05506567972366,8.183865478962261,24.63158415157343,10.350235134363169,25.78567979810053C12.417191243679422,26.886814611994065,13.670545644775109,29.515786255634524,16,29.757546142985422" fill="#ff2929" strokewidth="0"></path></g><g id="SVGRepo_tracerCarrier" stroke-linecap="round" stroke-linejoin="round"></g><g id="SVGRepo_iconCarrier"> <path d="M19.67 8.14002C19.5811 7.7973 19.4028 7.48433 19.1533 7.23309C18.9038 6.98185 18.5921 6.80134 18.25 6.71001C16.176 6.4654 14.0883 6.35517 12 6.38001C9.91174 6.35517 7.82405 6.4654 5.75001 6.71001C5.40793 6.80134 5.09622 6.98185 4.84674 7.23309C4.59725 7.48433 4.41894 7.7973 4.33001 8.14002C4.10282 9.41396 3.99236 10.706 4.00001 12C3.99198 13.3007 4.10244 14.5994 4.33001 15.88C4.42355 16.2172 4.60391 16.5239 4.85309 16.7696C5.10226 17.0153 5.41153 17.1913 5.75001 17.28C7.82405 17.5246 9.91174 17.6349 12 17.61C14.0883 17.6349 16.176 17.5246 18.25 17.28C18.5885 17.1913 18.8978 17.0153 19.1469 16.7696C19.3961 16.5239 19.5765 16.2172 19.67 15.88C19.8976 14.5994 20.008 13.3007 20 12C20.0077 10.706 19.8972 9.41396 19.67 8.14002ZM10.36 14.39V9.63001L14.55 12L10.36 14.38V14.39Z" fill="#ffffff"></path> </g></svg>