<svg fill="#ffffff" width="64px" height="64px" viewBox="-3.2 -3.2 38.40 38.40" xmlns="http://www.w3.org/2000/svg" stroke="#ffffff"><g id="SVGRepo_bgCarrier" stroke-width="0"><path transform="translate(-3.2, -3.2), scale(1.2)" d="M16,31.738566557211534C18.482012739787226,32.35155297907078,21.348840779508212,31.602994430530625,23.36202711825007,30.027170722321785C25.342557756358772,28.476908297872725,25.54749855916258,25.618457790348444,26.684693600070055,23.375111488039906C27.668856578250594,21.433651757254896,29.424782642400352,19.822035506354258,29.63350978341453,17.65540779618229C29.841131831003832,15.500251167466445,28.576060234495856,13.546039161767258,27.827314138525427,11.514491403846696C27.07213658781595,9.465493394732045,26.74211872561596,7.16185204287539,25.19719753893913,5.618510051802634C23.62869762672003,4.051613437012381,21.305244953175908,3.683837310768515,19.22394983767956,2.9199213348369284C16.922855977407494,2.0753307004324917,14.686305443006479,0.4514401100024894,12.27187863596409,0.8744170442915689C9.849224475108914,1.298835306552528,7.876455287725054,3.197522160068227,6.402051092473473,5.166155267956551C5.0370341957007145,6.988733814916872,5.205048758015286,9.474871320063366,4.27418466753222,11.552984823547778C3.2735356038876073,13.78689023752693,0.49561993165603335,15.417912503786745,0.717990906526877,17.855571851750113C0.9388464200007809,20.27661851614327,3.571639534626458,21.6937147742481,5.3504250440614936,23.35087083823996C6.850201658119982,24.7480960221856,8.717223836485815,25.53973876427168,10.327514779266757,26.808017592576533C12.32465879083082,28.38098518473612,13.531949265839657,31.12902835289525,16,31.738566557211534" fill="#e00083" strokewidth="0"></path></g><g id="SVGRepo_tracerCarrier" stroke-linecap="round" stroke-linejoin="round"></g><g id="SVGRepo_iconCarrier"><path d="M20.445 5h-8.891A6.559 6.559 0 0 0 5 11.554v8.891A6.559 6.559 0 0 0 11.554 27h8.891a6.56 6.56 0 0 0 6.554-6.555v-8.891A6.557 6.557 0 0 0 20.445 5zm4.342 15.445a4.343 4.343 0 0 1-4.342 4.342h-8.891a4.341 4.341 0 0 1-4.341-4.342v-8.891a4.34 4.34 0 0 1 4.341-4.341h8.891a4.342 4.342 0 0 1 4.341 4.341l.001 8.891z"></path><path d="M16 10.312c-3.138 0-5.688 2.551-5.688 5.688s2.551 5.688 5.688 5.688 5.688-2.551 5.688-5.688-2.55-5.688-5.688-5.688zm0 9.163a3.475 3.475 0 1 1-.001-6.95 3.475 3.475 0 0 1 .001 6.95zM21.7 8.991a1.363 1.363 0 1 1-1.364 1.364c0-.752.51-1.364 1.364-1.364z"></path></g></svg>